<svg version="1.1" xmlns="http://www.w3.org/2000/svg" width="900" height="350"><defs><clipPath id="QpqDDkFhqIuR"><path fill="none" stroke="none" d="M 61.5 5.5 L 838.5 5.5 L 838.5 300.5 L 61.5 300.5 L 61.5 5.5"/></clipPath><clipPath id="eKvgaXxLTafp"><path fill="none" stroke="none" d="M 61.5 5.5 L 838.5 5.5 L 838.5 300.5 L 61.5 300.5 L 61.5 5.5"/></clipPath><clipPath id="AuGZommKbWMW"><path fill="none" stroke="none" d="M 61.5 5.5 L 838.5 5.5 L 838.5 300.5 L 61.5 300.5 L 61.5 5.5"/></clipPath><clipPath id="QgtieZkyxfSv"><path fill="none" stroke="none" d="M 61.5 5.5 L 838.5 5.5 L 838.5 300.5 L 61.5 300.5 L 61.5 5.5"/></clipPath><clipPath id="tnHrGyJyRMlA"><path fill="none" stroke="none" d="M 61.5 5.5 L 838.5 5.5 L 838.5 300.5 L 61.5 300.5 L 61.5 5.5"/></clipPath><clipPath id="RSJsTebuLyMv"><path fill="none" stroke="none" d="M 61.5 5.5 L 838.5 5.5 L 838.5 300.5 L 61.5 300.5 L 61.5 5.5"/></clipPath></defs><path fill="rgb(255,255,255)" stroke="none" paint-order="stroke" d="M 0.5 0.5 L 900.5 0.5 L 900.5 350.5 L 0.5 350.5 L 0.5 0.5" fill-opacity="1"/><rect fill="#FFFFFF" stroke="none" x="61" y="5" width="777" height="295" transform="matrix(1, 0, 0, 1, 0.5, 0.5)"/><path fill="rgb(255,255,255)" stroke="none" paint-order="stroke" d="M 61.5 5.5 L 838.5 5.5 L 838.5 300.5 L 61.5 300.5 L 61.5 5.5" fill-opacity="1"/><path fill="none" stroke="rgb(229,229,229)" paint-order="fill" d="M 61.5 5.5 L 838.5 5.5 L 838.5 300.5 L 61.5 300.5 L 61.5 5.5" stroke-opacity="1" stroke-linejoin="bevel" stroke-miterlimit="10" stroke-dasharray=""/><path fill="none" stroke="rgb(229,229,229)" paint-order="fill" d="M 96.5 300.5 L 96.5 5.5 M 273.5 300.5 L 273.5 5.5 M 450.5 300.5 L 450.5 5.5 M 626.5 300.5 L 626.5 5.5 M 803.5 300.5 L 803.5 5.5" stroke-opacity="1" stroke-linejoin="bevel" stroke-miterlimit="10" stroke-dasharray="" clip-path="url(#QpqDDkFhqIuR)"/><path fill="none" stroke="rgb(229,229,229)" paint-order="fill" d="M 61.5 287.5 L 838.5 287.5 M 61.5 248.5 L 838.5 248.5 M 61.5 208.5 L 838.5 208.5 M 61.5 169.5 L 838.5 169.5 M 61.5 130.5 L 838.5 130.5 M 61.5 91.5 L 838.5 91.5 M 61.5 52.5 L 838.5 52.5 M 61.5 13.5 L 838.5 13.5" stroke-opacity="1" stroke-linejoin="bevel" stroke-miterlimit="10" stroke-dasharray="" clip-path="url(#eKvgaXxLTafp)"/><path fill="none" stroke="rgb(168,221,181)" paint-order="fill" d="M 96.81818389892578 152.00413513183594 L 626.5908813476562 18.909090042114258 L 803.1818237304688 24.376609802246094" stroke-opacity="1" stroke-linejoin="bevel" stroke-miterlimit="10" stroke-width="4" stroke-dasharray="" clip-path="url(#AuGZommKbWMW)"/><path fill="rgb(255,0,0)" stroke="rgb(255,0,0)" paint-order="fill" d="M 96.81818389892578 223.03189086914062 L 96.81818389892578 223.03189086914062 L 96.81818389892578 300.5 L 96.81818389892578 300.5 L 96.81818389892578 223.03189086914062" fill-opacity="1" clip-path="url(#QgtieZkyxfSv)" stroke-opacity="1" stroke-linejoin="bevel" stroke-miterlimit="10" stroke-dasharray=""/><path fill="rgb(255,0,0)" stroke="rgb(255,0,0)" paint-order="fill" d="M 626.5908813476562 43.9782600402832 L 626.5908813476562 43.9782600402832 L 626.5908813476562 300.5 L 626.5908813476562 300.5 L 626.5908813476562 43.9782600402832" fill-opacity="1" clip-path="url(#QgtieZkyxfSv)" stroke-opacity="1" stroke-linejoin="bevel" stroke-miterlimit="10" stroke-dasharray=""/><path fill="rgb(255,0,0)" stroke="rgb(255,0,0)" paint-order="fill" d="M 803.1818237304688 141.90963745117188 L 803.1818237304688 141.90963745117188 L 803.1818237304688 300.5 L 803.1818237304688 300.5 L 803.1818237304688 141.90963745117188" fill-opacity="1" clip-path="url(#QgtieZkyxfSv)" stroke-opacity="1" stroke-linejoin="bevel" stroke-miterlimit="10" stroke-dasharray=""/><path fill="none" stroke="rgb(0,0,0)" paint-order="fill" d="M 61.5 300.5 L 838.5 300.5" stroke-opacity="1" stroke-linejoin="bevel" stroke-miterlimit="10" stroke-dasharray=""/><path fill="none" stroke="rgb(0,0,0)" paint-order="fill" d="M 96.5 306.5 L 96.5 298.5 M 273.5 306.5 L 273.5 298.5 M 450.5 306.5 L 450.5 298.5 M 626.5 306.5 L 626.5 298.5 M 803.5 306.5 L 803.5 298.5" stroke-opacity="1" stroke-linejoin="bevel" stroke-miterlimit="10" stroke-dasharray=""/><path fill="none" stroke="rgb(0,0,0)" paint-order="fill" d="" stroke-opacity="1" stroke-linejoin="bevel" stroke-miterlimit="10" stroke-dasharray=""/><text fill="rgb(68,68,68)" stroke="none" font-family="helvetica" font-size="11px" font-style="normal" font-weight="normal" text-decoration="normal" x="85.61359405517578" y="321" text-anchor="start" dominant-baseline="alphabetic" transform="matrix(1, 0, 0, 1, 0.5, 0.5)" fill-opacity="1">8/18</text><text fill="rgb(68,68,68)" stroke="none" font-family="helvetica" font-size="11px" font-style="normal" font-weight="normal" text-decoration="normal" x="262.2044982910156" y="321" text-anchor="start" dominant-baseline="alphabetic" transform="matrix(1, 0, 0, 1, 0.5, 0.5)" fill-opacity="1">8/19</text><text fill="rgb(68,68,68)" stroke="none" font-family="helvetica" font-size="11px" font-style="normal" font-weight="normal" text-decoration="normal" x="438.79541015625" y="321" text-anchor="start" dominant-baseline="alphabetic" transform="matrix(1, 0, 0, 1, 0.5, 0.5)" fill-opacity="1">8/20</text><text fill="rgb(68,68,68)" stroke="none" font-family="helvetica" font-size="11px" font-style="normal" font-weight="normal" text-decoration="normal" x="615.3862915039062" y="321" text-anchor="start" dominant-baseline="alphabetic" transform="matrix(1, 0, 0, 1, 0.5, 0.5)" fill-opacity="1">8/21</text><text fill="rgb(68,68,68)" stroke="none" font-family="helvetica" font-size="11px" font-style="normal" font-weight="normal" text-decoration="normal" x="791.9772338867188" y="321" text-anchor="start" dominant-baseline="alphabetic" transform="matrix(1, 0, 0, 1, 0.5, 0.5)" fill-opacity="1">8/22</text><text fill="rgb(68,68,68)" stroke="none" font-family="helvetica" font-size="13px" font-style="italic" font-weight="normal" text-decoration="normal" x="439.02001953125" y="344" text-anchor="start" dominant-baseline="alphabetic" transform="matrix(1, 0, 0, 1, 0.5, 0.5)" fill-opacity="1">day</text><path fill="none" stroke="rgb(0,0,0)" paint-order="fill" d="M 61.5 300.5 L 61.5 5.5" stroke-opacity="1" stroke-linejoin="bevel" stroke-miterlimit="10" stroke-dasharray=""/><path fill="none" stroke="rgb(0,0,0)" paint-order="fill" d="M 55.5 287.5 L 63.5 287.5 M 55.5 248.5 L 63.5 248.5 M 55.5 208.5 L 63.5 208.5 M 55.5 169.5 L 63.5 169.5 M 55.5 130.5 L 63.5 130.5 M 55.5 91.5 L 63.5 91.5 M 55.5 52.5 L 63.5 52.5 M 55.5 13.5 L 63.5 13.5" stroke-opacity="1" stroke-linejoin="bevel" stroke-miterlimit="10" stroke-dasharray=""/><path fill="none" stroke="rgb(0,0,0)" paint-order="fill" d="M 57.5 294.5 L 61.5 294.5 M 57.5 287.5 L 61.5 287.5 M 57.5 279.5 L 61.5 279.5 M 57.5 271.5 L 61.5 271.5 M 57.5 263.5 L 61.5 263.5 M 57.5 255.5 L 61.5 255.5 M 57.5 248.5 L 61.5 248.5 M 57.5 240.5 L 61.5 240.5 M 57.5 232.5 L 61.5 232.5 M 57.5 224.5 L 61.5 224.5 M 57.5 216.5 L 61.5 216.5 M 57.5 208.5 L 61.5 208.5 M 57.5 201.5 L 61.5 201.5 M 57.5 193.5 L 61.5 193.5 M 57.5 185.5 L 61.5 185.5 M 57.5 177.5 L 61.5 177.5 M 57.5 169.5 L 61.5 169.5 M 57.5 162.5 L 61.5 162.5 M 57.5 154.5 L 61.5 154.5 M 57.5 146.5 L 61.5 146.5 M 57.5 138.5 L 61.5 138.5 M 57.5 130.5 L 61.5 130.5 M 57.5 123.5 L 61.5 123.5 M 57.5 115.5 L 61.5 115.5 M 57.5 107.5 L 61.5 107.5 M 57.5 99.5 L 61.5 99.5 M 57.5 91.5 L 61.5 91.5 M 57.5 84.5 L 61.5 84.5 M 57.5 76.5 L 61.5 76.5 M 57.5 68.5 L 61.5 68.5 M 57.5 60.5 L 61.5 60.5 M 57.5 52.5 L 61.5 52.5 M 57.5 44.5 L 61.5 44.5 M 57.5 37.5 L 61.5 37.5 M 57.5 29.5 L 61.5 29.5 M 57.5 21.5 L 61.5 21.5 M 57.5 13.5 L 61.5 13.5 M 57.5 5.5 L 61.5 5.5" stroke-opacity="1" stroke-linejoin="bevel" stroke-miterlimit="10" stroke-dasharray=""/><text fill="rgb(68,68,68)" stroke="none" font-family="helvetica" font-size="11px" font-style="normal" font-weight="normal" text-decoration="normal" x="43.88232421875" y="290.5359802246094" text-anchor="start" dominant-baseline="alphabetic" transform="matrix(1, 0, 0, 1, 0.5, 0.5)" fill-opacity="1">0</text><text fill="rgb(68,68,68)" stroke="none" font-family="helvetica" font-size="11px" font-style="normal" font-weight="normal" text-decoration="normal" x="25.529296875" y="251.48226928710938" text-anchor="start" dominant-baseline="alphabetic" transform="matrix(1, 0, 0, 1, 0.5, 0.5)" fill-opacity="1">1000</text><text fill="rgb(68,68,68)" stroke="none" font-family="helvetica" font-size="11px" font-style="normal" font-weight="normal" text-decoration="normal" x="25.529296875" y="212.42855834960938" text-anchor="start" dominant-baseline="alphabetic" transform="matrix(1, 0, 0, 1, 0.5, 0.5)" fill-opacity="1">2000</text><text fill="rgb(68,68,68)" stroke="none" font-family="helvetica" font-size="11px" font-style="normal" font-weight="normal" text-decoration="normal" x="25.529296875" y="173.37484741210938" text-anchor="start" dominant-baseline="alphabetic" transform="matrix(1, 0, 0, 1, 0.5, 0.5)" fill-opacity="1">3000</text><text fill="rgb(68,68,68)" stroke="none" font-family="helvetica" font-size="11px" font-style="normal" font-weight="normal" text-decoration="normal" x="25.529296875" y="134.32113647460938" text-anchor="start" dominant-baseline="alphabetic" transform="matrix(1, 0, 0, 1, 0.5, 0.5)" fill-opacity="1">4000</text><text fill="rgb(68,68,68)" stroke="none" font-family="helvetica" font-size="11px" font-style="normal" font-weight="normal" text-decoration="normal" x="25.529296875" y="95.2674331665039" text-anchor="start" dominant-baseline="alphabetic" transform="matrix(1, 0, 0, 1, 0.5, 0.5)" fill-opacity="1">5000</text><text fill="rgb(68,68,68)" stroke="none" font-family="helvetica" font-size="11px" font-style="normal" font-weight="normal" text-decoration="normal" x="25.529296875" y="56.21372604370117" text-anchor="start" dominant-baseline="alphabetic" transform="matrix(1, 0, 0, 1, 0.5, 0.5)" fill-opacity="1">6000</text><text fill="rgb(68,68,68)" stroke="none" font-family="helvetica" font-size="11px" font-style="normal" font-weight="normal" text-decoration="normal" x="25.529296875" y="17.16001605987549" text-anchor="start" dominant-baseline="alphabetic" transform="matrix(1, 0, 0, 1, 0.5, 0.5)" fill-opacity="1">7000</text><text fill="rgb(68,68,68)" stroke="none" font-family="helvetica" font-size="13px" font-style="italic" font-weight="normal" text-decoration="normal" x="-49.31787109375" y="149.5" text-anchor="start" dominant-baseline="alphabetic" transform="matrix(6.123233995736766e-17, -1, 1, 6.123233995736766e-17, -134.470703125, 170.529296875)" fill-opacity="1">Document Length Total</text><path fill="none" stroke="rgb(0,0,0)" paint-order="fill" d="M 838.5 300.5 L 838.5 5.5" stroke-opacity="1" stroke-linejoin="bevel" stroke-miterlimit="10" stroke-dasharray=""/><path fill="none" stroke="rgb(0,0,0)" paint-order="fill" d="M 844.5 300.5 L 836.5 300.5 M 844.5 227.5 L 836.5 227.5 M 844.5 154.5 L 836.5 154.5 M 844.5 81.5 L 836.5 81.5 M 844.5 8.5 L 836.5 8.5" stroke-opacity="1" stroke-linejoin="bevel" stroke-miterlimit="10" stroke-dasharray=""/><path fill="none" stroke="rgb(0,0,0)" paint-order="fill" d="M 842.5 300.5 L 838.5 300.5 M 842.5 285.5 L 838.5 285.5 M 842.5 271.5 L 838.5 271.5 M 842.5 256.5 L 838.5 256.5 M 842.5 242.5 L 838.5 242.5 M 842.5 227.5 L 838.5 227.5 M 842.5 212.5 L 838.5 212.5 M 842.5 198.5 L 838.5 198.5 M 842.5 183.5 L 838.5 183.5 M 842.5 168.5 L 838.5 168.5 M 842.5 154.5 L 838.5 154.5 M 842.5 139.5 L 838.5 139.5 M 842.5 125.5 L 838.5 125.5 M 842.5 110.5 L 838.5 110.5 M 842.5 95.5 L 838.5 95.5 M 842.5 81.5 L 838.5 81.5 M 842.5 66.5 L 838.5 66.5 M 842.5 52.5 L 838.5 52.5 M 842.5 37.5 L 838.5 37.5 M 842.5 22.5 L 838.5 22.5 M 842.5 8.5 L 838.5 8.5" stroke-opacity="1" stroke-linejoin="bevel" stroke-miterlimit="10" stroke-dasharray=""/><text fill="rgb(68,68,68)" stroke="none" font-family="helvetica" font-size="11px" font-style="normal" font-weight="normal" text-decoration="normal" x="849" y="303.945068359375" text-anchor="start" dominant-baseline="alphabetic" transform="matrix(1, 0, 0, 1, 0.5, 0.5)" fill-opacity="1">0</text><text fill="rgb(68,68,68)" stroke="none" font-family="helvetica" font-size="11px" font-style="normal" font-weight="normal" text-decoration="normal" x="849" y="230.86195373535156" text-anchor="start" dominant-baseline="alphabetic" transform="matrix(1, 0, 0, 1, 0.5, 0.5)" fill-opacity="1">100</text><text fill="rgb(68,68,68)" stroke="none" font-family="helvetica" font-size="11px" font-style="normal" font-weight="normal" text-decoration="normal" x="849" y="157.77883911132812" text-anchor="start" dominant-baseline="alphabetic" transform="matrix(1, 0, 0, 1, 0.5, 0.5)" fill-opacity="1">200</text><text fill="rgb(68,68,68)" stroke="none" font-family="helvetica" font-size="11px" font-style="normal" font-weight="normal" text-decoration="normal" x="849" y="84.69571685791016" text-anchor="start" dominant-baseline="alphabetic" transform="matrix(1, 0, 0, 1, 0.5, 0.5)" fill-opacity="1">300</text><text fill="rgb(68,68,68)" stroke="none" font-family="helvetica" font-size="11px" font-style="normal" font-weight="normal" text-decoration="normal" x="849" y="11.612602233886719" text-anchor="start" dominant-baseline="alphabetic" transform="matrix(1, 0, 0, 1, 0.5, 0.5)" fill-opacity="1">400</text><path fill="rgb(255,255,255)" stroke="rgb(229,229,229)" paint-order="fill" d="M 697.5614013671875 15.5 L 828.5 15.5 L 828.5 78.5 L 697.5614013671875 78.5 L 697.5614013671875 15.5" fill-opacity="0.9490196078431372" clip-path="url(#tnHrGyJyRMlA)" stroke-opacity="0.5019607843137255" stroke-linejoin="bevel" stroke-miterlimit="10" stroke-dasharray=""/><g clip-path="url(#tnHrGyJyRMlA)"><text fill="rgb(68,68,68)" stroke="none" font-family="helvetica" font-size="13px" font-style="normal" font-weight="normal" text-decoration="normal" x="732.0614013671875" y="35" text-anchor="start" dominant-baseline="central" transform="matrix(1, 0, 0, 1, 0.5, 0.5)" fill-opacity="1">수정된 문서의 양</text></g><path fill="none" stroke="rgb(168,221,181)" paint-order="fill" d="M 707.5614013671875 35.5 L 727.5614013671875 35.5" stroke-opacity="1" stroke-linejoin="bevel" stroke-miterlimit="10" stroke-width="4" stroke-dasharray="" clip-path="url(#tnHrGyJyRMlA)"/><g clip-path="url(#tnHrGyJyRMlA)"><text fill="rgb(68,68,68)" stroke="none" font-family="helvetica" font-size="13px" font-style="normal" font-weight="normal" text-decoration="normal" x="732.0614013671875" y="58" text-anchor="start" dominant-baseline="central" transform="matrix(1, 0, 0, 1, 0.5, 0.5)" fill-opacity="1">수정된 양</text></g><path fill="rgb(255,0,0)" stroke="rgb(255,0,0)" paint-order="fill" d="M 709.5614013671875 50.5 L 725.5614013671875 50.5 L 725.5614013671875 66.5 L 709.5614013671875 66.5 L 709.5614013671875 50.5" fill-opacity="1" clip-path="url(#tnHrGyJyRMlA)" stroke-opacity="1" stroke-linejoin="bevel" stroke-miterlimit="10" stroke-dasharray=""/></svg>